<svg xmlns="http://www.w3.org/2000/svg" xmlns:svg="http://www.w3.org/2000/svg" xmlns:xlink="http://www.w3.org/1999/xlink" id="svg3809" width="64" height="64" version="1.1"><defs id="defs3811"><linearGradient id="linearGradient4682"><stop style="stop-color:#5df;stop-opacity:1" id="stop4678" offset="0"/><stop style="stop-color:#5541ff;stop-opacity:1" id="stop4680" offset="1"/></linearGradient><linearGradient id="linearGradient4684" x1="743.54" x2="932.139" y1="186.787" y2="187.671" gradientUnits="userSpaceOnUse" xlink:href="#linearGradient4682"/><filter style="color-interpolation-filters:sRGB" id="filter5292" width="1.742" height="3.952" x="-.371" y="-1.476"><feGaussianBlur id="feGaussianBlur5294" stdDeviation="2.664"/></filter><linearGradient id="linearGradient5335" x1="743.54" x2="932.139" y1="186.787" y2="187.671" gradientUnits="userSpaceOnUse" xlink:href="#linearGradient4682"/><linearGradient id="linearGradient5337" x1="743.54" x2="932.139" y1="186.787" y2="187.671" gradientUnits="userSpaceOnUse" xlink:href="#linearGradient4682"/><linearGradient id="linearGradient5339" x1="743.54" x2="932.139" y1="186.787" y2="187.671" gradientUnits="userSpaceOnUse" xlink:href="#linearGradient4682"/><linearGradient id="linearGradient5341" x1="743.54" x2="932.139" y1="186.787" y2="187.671" gradientUnits="userSpaceOnUse" xlink:href="#linearGradient4682"/><linearGradient id="linearGradient5343" x1="743.54" x2="932.139" y1="186.787" y2="187.671" gradientUnits="userSpaceOnUse" xlink:href="#linearGradient4682"/></defs><metadata id="metadata3814"/><g id="layer3"><g id="g893"><path id="path906" d="m 768.506,202.73974 -1.85965,4.31387 2.79235,2.52811 2.7936,-2.57519 -1.85965,-4.31387 z" transform="translate(-736.85718,-157.93361)" style="display:inline;fill:#5df;stroke:none;stroke-width:.30000001;stroke-linecap:butt;stroke-linejoin:miter;stroke-miterlimit:4;stroke-dasharray:none;stroke-opacity:1;fill-opacity:1"/><ellipse id="path4690" cx="769.605" cy="210.399" rx="8.618" ry="2.166" transform="matrix(1.6688888,0,0,0.42174292,-1250.6073,-36.4899)" style="display:inline;opacity:.22699998;fill:#000;fill-opacity:1;stroke:none;stroke-width:.40000001;stroke-linecap:round;stroke-linejoin:round;stroke-miterlimit:4;stroke-dasharray:none;stroke-opacity:1;filter:url(#filter5292)"/><g id="g5367"><g id="g5310"><g style="display:inline;opacity:1;fill:url(#linearGradient4684);fill-opacity:1" id="g4654" transform="translate(-736.85718,-157.93361)"><path style="fill:url(#linearGradient5335);fill-opacity:1;stroke:none;stroke-width:.30000001;stroke-linecap:round;stroke-linejoin:round;stroke-miterlimit:4;stroke-dasharray:none;stroke-opacity:1" id="path868" d="m 744.1643,190.4709 c 16.8024,-4.75145 33.6048,-5.24353 50.4072,0 l -25.1328,19.11082 z"/><g id="g4602" transform="translate(736.85718,157.93361)" style="fill:url(#linearGradient5343);fill-opacity:1;stroke:none"><g style="display:inline;fill:url(#linearGradient5339);fill-opacity:1;stroke:none" id="g38" transform="translate(-736.85718,-157.93361)"><ellipse style="fill:url(#linearGradient5337);fill-opacity:1;stroke:none;stroke-width:.30000001;stroke-linecap:round;stroke-linejoin:round;stroke-miterlimit:4;stroke-dasharray:none;stroke-opacity:1" id="path866" cx="769.118" cy="182.614" rx="25.577" ry="7.657"/></g><path id="path864" d="m 781.57388,176.12989 -1.48403,-9.03934 c -4.0353,-4.27995 -17.74609,-3.97922 -22.11226,0 l -1.27871,9.07059" transform="translate(-736.85718,-157.93361)" style="display:inline;fill:url(#linearGradient5341);fill-opacity:1;stroke:none;stroke-width:.30000001;stroke-linecap:round;stroke-linejoin:round;stroke-miterlimit:4;stroke-dasharray:none;stroke-opacity:1"/></g></g><path id="path872-7" d="m 779.38479,194.42173 c -2.56337,6.91161 -5.80793,7.4655 -9.01214,8.39593 l 1.85965,4.31387 c 0,0 7.95289,-3.10134 7.15249,-12.7098 z" transform="translate(-736.85718,-157.93361)" style="display:inline;fill:#fff;fill-opacity:1;stroke:none;stroke-width:.30000001;stroke-linecap:round;stroke-linejoin:round;stroke-miterlimit:4;stroke-dasharray:none;stroke-opacity:1"/><path id="path872" d="m 759.49386,194.46881 c 2.56337,6.91161 5.80793,7.4655 9.01214,8.39593 l -1.85965,4.31387 c 0,0 -7.95289,-3.10134 -7.15249,-12.7098 z" transform="translate(-736.85718,-157.93361)" style="display:inline;fill:#fff;fill-opacity:1;stroke:none;stroke-width:.30000001;stroke-linecap:round;stroke-linejoin:round;stroke-miterlimit:4;stroke-dasharray:none;stroke-opacity:1"/></g><g id="g4609" transform="translate(2.6542,23.97753)" style="stroke:none"><path style="fill:#fff;fill-opacity:1;stroke:none;stroke-width:.30000001;stroke-linecap:round;stroke-linejoin:round;stroke-miterlimit:4;stroke-dasharray:none;stroke-opacity:1" id="path4613" d="m 17.1875,-5.75 v 2.8125002 c 7.143654,2.41809319 14.924928,2.98621109 24.875,0 V -5.78125 C 34.048398,-3.5020143 25.79042,-3.2012507 17.1875,-5.75 Z"/></g></g><g id="g5329" transform="matrix(1.194334,0,0,1.194334,77.9667,-43.526636)"><path style="display:inline;opacity:1;fill:#242769;fill-opacity:1;stroke:none;stroke-width:.49347186;stroke-linecap:square;stroke-miterlimit:4;stroke-dasharray:none;stroke-opacity:1" id="rect4186-2-1" d="m -28.749609,71.782528 c -1.631366,0.79281 -3.262737,1.691705 -4.894103,1.99307 v 5.908606 c 0,1.654414 2.643669,3.914184 4.894103,4.962775 2.250434,-1.048591 4.894102,-3.308361 4.894102,-4.962775 v -5.908606 c -1.631365,-0.301365 -3.262737,-1.20026 -4.894102,-1.99307 z"/><path style="fill:none;stroke:#fff;stroke-width:.24782443;stroke-linecap:round;stroke-linejoin:round;stroke-miterlimit:4;stroke-dasharray:none;stroke-opacity:1" id="path4686" d="m -30.487497,78.844126 1.172924,1.724476 3.020614,-5.231858"/></g></g></g></svg>