<svg xmlns="http://www.w3.org/2000/svg" xmlns:svg="http://www.w3.org/2000/svg" id="svg9" width="64" height="64" version="1.1" viewBox="0 0 64 64"><metadata id="metadata13"/><defs id="defs3051"><style id="current-color-scheme" type="text/css">.ColorScheme-Text{color:#4d4d4d}.ColorScheme-NegativeText{color:#da4453}</style></defs><path id="path4" d="m 32,9.5 c 0,0 -5.625,7.474272 -22.5,9.349365 0,0 0,26.251541 22.5,35.650635 C 54.5,45.100906 54.5,18.849365 54.5,18.849365 37.625,16.974272 32,9.5 32,9.5 Z m 0,3.87268 c 4.463424,3.781969 10.904512,6.304949 19.25354,7.575074 -0.453541,4.064625 -0.888398,7.123457 -1.939086,10.079957 C 47.106388,37.240804 44.531867,41.02061 42.22278,43.738892 38.644638,47.951172 35.395227,49.655916 32,51.352416 28.604773,49.655916 25.35536,47.951172 21.777222,43.738892 19.468134,41.02061 16.893613,37.240804 14.685547,31.027711 13.634858,28.071211 13.200001,25.012379 12.74646,20.947754 21.095487,19.677629 27.536576,17.154649 32,13.37268 Z" class="ColorScheme-Text" style="fill:#48a2e0;fill-opacity:1;stroke:none;stroke-width:2.8125"/><path style="color:#da4453;fill:#881b27;fill-opacity:1;stroke:none;stroke-width:2.8125" id="path6-3" d="M 34.8125,34 C 33.254321,34 32,35.254375 32,36.8125 v 16.875 c 0,1.558406 1.254321,2.8125 2.8125,2.8125 h 16.875 C 53.245679,56.5 54.5,55.245906 54.5,53.6875 V 36.8125 C 54.5,35.254375 53.245679,34 51.6875,34 Z" class="ColorScheme-NegativeText"/><path id="path6" d="M 34.8125,32 C 33.254321,32 32,33.254375 32,34.8125 v 16.875 c 0,1.558406 1.254321,2.8125 2.8125,2.8125 h 16.875 C 53.245679,54.5 54.5,53.245906 54.5,51.6875 V 34.8125 C 54.5,33.254375 53.245679,32 51.6875,32 Z" class="ColorScheme-NegativeText" style="fill:currentColor;fill-opacity:1;stroke:none;stroke-width:2.8125"/><path id="path4141" d="m 37.625,34.8125 -2.8125,2.8125 5.625,5.625 -5.625,5.625 2.8125,2.8125 5.625,-5.625 5.625,5.625 2.8125,-2.8125 -5.625,-5.625 5.625,-5.625 -2.8125,-2.8125 -5.625,5.625 z" style="fill:#fff;stroke-width:2.8125"/></svg>